<?xml version="1.0" encoding="UTF-8" standalone="no"?>
<!-- Created with Inkscape (http://www.inkscape.org/) -->

<svg
   xmlns:dc="http://purl.org/dc/elements/1.1/"
   xmlns:cc="http://creativecommons.org/ns#"
   xmlns:rdf="http://www.w3.org/1999/02/22-rdf-syntax-ns#"
   xmlns:svg="http://www.w3.org/2000/svg"
   xmlns="http://www.w3.org/2000/svg"
   xmlns:sodipodi="http://sodipodi.sourceforge.net/DTD/sodipodi-0.dtd"
   xmlns:inkscape="http://www.inkscape.org/namespaces/inkscape"
   width="115.19234mm"
   height="55.232689mm"
   viewBox="0 0 408.16185 195.70638"
   id="svg2"
   version="1.1"
   inkscape:version="0.92.3 (2405546, 2018-03-11)"
   sodipodi:docname="nighres_logo.svg"
   inkscape:export-filename="/home/julia/workspace/nighres/doc/_static/nighres_logo.png"
   inkscape:export-xdpi="1000"
   inkscape:export-ydpi="1000">
  <defs
     id="defs4">
    <clipPath
       id="clipPath4174-3"
       clipPathUnits="userSpaceOnUse">
      <rect
         transform="scale(1,-1)"
         y="-614.12402"
         x="256.02905"
         height="183.4437"
         width="191.52493"
         id="rect4176-6"
         style="opacity:0.5;fill:none;fill-opacity:1;stroke:#000000;stroke-width:1.60000002;stroke-linecap:butt;stroke-linejoin:miter;stroke-miterlimit:4;stroke-dasharray:none;stroke-dashoffset:0;stroke-opacity:1" />
    </clipPath>
    <filter
       id="filter4325"
       inkscape:label="Edge Detect"
       style="color-interpolation-filters:sRGB">
      <feConvolveMatrix
         id="feConvolveMatrix4327"
         result="convolve"
         preserveAlpha="true"
         targetY="1"
         targetX="1"
         divisor="1"
         bias="1"
         order="3 3"
         kernelMatrix="0 1 0 1 -4 1 0 1 0"
         in="SourceGraphic" />
    </filter>
    <clipPath
       id="clipPath4174-5"
       clipPathUnits="userSpaceOnUse">
      <rect
         transform="scale(1,-1)"
         y="-614.12402"
         x="256.02905"
         height="183.4437"
         width="191.52493"
         id="rect4176-62"
         style="opacity:0.5;fill:none;fill-opacity:1;stroke:#000000;stroke-width:1.60000002;stroke-linecap:butt;stroke-linejoin:miter;stroke-miterlimit:4;stroke-dasharray:none;stroke-dashoffset:0;stroke-opacity:1" />
    </clipPath>
    <clipPath
       id="clipPath4174-3-7"
       clipPathUnits="userSpaceOnUse">
      <rect
         transform="scale(1,-1)"
         y="-614.12402"
         x="256.02905"
         height="183.4437"
         width="191.52493"
         id="rect4176-6-0"
         style="opacity:0.5;fill:none;fill-opacity:1;stroke:#000000;stroke-width:1.60000002;stroke-linecap:butt;stroke-linejoin:miter;stroke-miterlimit:4;stroke-dasharray:none;stroke-dashoffset:0;stroke-opacity:1" />
    </clipPath>
    <filter
       id="filter4325-9"
       inkscape:label="Edge Detect"
       style="color-interpolation-filters:sRGB">
      <feConvolveMatrix
         id="feConvolveMatrix4327-3"
         result="convolve"
         preserveAlpha="true"
         targetY="1"
         targetX="1"
         divisor="1"
         bias="1"
         order="3 3"
         kernelMatrix="0 1 0 1 -4 1 0 1 0"
         in="SourceGraphic" />
    </filter>
    <filter
       id="filter4891"
       inkscape:label="Clean Edges"
       style="color-interpolation-filters:sRGB">
      <feGaussianBlur
         id="feGaussianBlur4893"
         result="blur"
         stdDeviation="2" />
      <feComposite
         id="feComposite4895"
         result="composite1"
         operator="in"
         in2="blur"
         in="SourceGraphic" />
      <feComposite
         id="feComposite4897"
         result="composite2"
         operator="in"
         in2="composite1"
         in="composite1" />
    </filter>
    <clipPath
       id="clipPath4174-2"
       clipPathUnits="userSpaceOnUse">
      <rect
         transform="scale(1,-1)"
         y="-614.12402"
         x="256.02905"
         height="183.4437"
         width="191.52493"
         id="rect4176-61"
         style="opacity:0.5;fill:none;fill-opacity:1;stroke:#000000;stroke-width:1.60000002;stroke-linecap:butt;stroke-linejoin:miter;stroke-miterlimit:4;stroke-dasharray:none;stroke-dashoffset:0;stroke-opacity:1" />
    </clipPath>
    <filter
       id="filter5330"
       inkscape:label="Color Shift"
       style="color-interpolation-filters:sRGB">
      <feColorMatrix
         id="feColorMatrix5332"
         result="color1"
         values="306"
         type="hueRotate" />
      <feColorMatrix
         id="feColorMatrix5334"
         result="color2"
         values="1"
         type="saturate" />
    </filter>
    <clipPath
       id="clipPath4174-20"
       clipPathUnits="userSpaceOnUse">
      <rect
         transform="scale(1,-1)"
         y="-614.12402"
         x="256.02905"
         height="183.4437"
         width="191.52493"
         id="rect4176-2"
         style="opacity:0.5;fill:none;fill-opacity:1;stroke:#000000;stroke-width:1.60000002;stroke-linecap:butt;stroke-linejoin:miter;stroke-miterlimit:4;stroke-dasharray:none;stroke-dashoffset:0;stroke-opacity:1" />
    </clipPath>
  </defs>
  <sodipodi:namedview
     id="base"
     pagecolor="#ffffff"
     bordercolor="#666666"
     borderopacity="1.0"
     inkscape:pageopacity="0"
     inkscape:pageshadow="2"
     inkscape:zoom="1.4"
     inkscape:cx="104.51556"
     inkscape:cy="242.04063"
     inkscape:document-units="px"
     inkscape:current-layer="layer1"
     showgrid="false"
     inkscape:window-width="1865"
     inkscape:window-height="1145"
     inkscape:window-x="55"
     inkscape:window-y="27"
     inkscape:window-maximized="1"
     fit-margin-top="0"
     fit-margin-left="0"
     fit-margin-right="0"
     fit-margin-bottom="0"
     inkscape:pagecheckerboard="true" />
  <metadata
     id="metadata7">
    <rdf:RDF>
      <cc:Work
         rdf:about="">
        <dc:format>image/svg+xml</dc:format>
        <dc:type
           rdf:resource="http://purl.org/dc/dcmitype/StillImage" />
        <dc:title></dc:title>
      </cc:Work>
    </rdf:RDF>
  </metadata>
  <g
     inkscape:label="Layer 1"
     inkscape:groupmode="layer"
     id="layer1"
     transform="translate(-147.3066,-761.94787)">
    <g
       id="g96"
       inkscape:export-xdpi="500"
       inkscape:export-ydpi="500">
      <g
         id="g4247"
         transform="translate(-684.45923,361.55751)">
        <path
           style="fill:#afcae5"
           d="m 958.76037,573.03432 c -9.88797,-11.06127 -27.82735,-7.71777 -38.00915,1.15992 -11.98617,7.67245 -26.01557,16.43662 -40.8599,12.52155 -15.18863,1.81978 -33.99717,-1.19541 -41.57795,-16.26235 -12.09173,-19.90117 -5.38834,-44.50119 3.65382,-64.1712 4.96314,-12.35877 18.14882,-33.14209 7.21422,-37.18387 -4.98293,-10.89375 -9.95956,-26.07205 0.0707,-35.68483 10.52254,-10.139 27.9256,-8.61694 38.87697,1.08257 8.87839,27.37692 9.68064,-11.54873 12.87695,-17.18857 3.19631,-5.63985 4.85809,-7.99387 11.16982,-10.33085 17.91866,-3.55607 43.34014,-3.35072 62.91445,-0.003 14.67927,3.42249 29.624,16.20547 27.469,32.60049 -1.4332,19.84573 -7.30544,39.27298 -6.98944,59.23639 -0.52536,6.61666 3.62777,17.77344 9.27784,7.58626 1.7068,-11.14866 -3.4404,-22.30356 -1.4802,-33.6993 0.4217,-14.19185 3.1589,-29.30092 12.0387,-40.65731 12.1921,-5.97424 11.9312,8.95182 5.6263,15.2434 -7.9956,19.16847 -1.9196,41.18019 10.0517,57.26686 6.8518,9.49778 14.6044,19.65346 14.0167,32.04535 -0.1708,15.99439 -12.6403,29.01693 -25.4132,37.05369 -10.4079,5.8591 -23.00266,10.03178 -34.91533,7.90365 -10.31462,-0.24724 -18.7491,-4.46748 -26.012,-8.51853 z m -17.32746,-45.62111 c 21.06083,17.01542 7.93715,-48.04712 5.55817,-63.54974 -13.3102,-7.03111 -15.8554,14.40451 -12.21371,22.96475 0.55766,6.57989 -1.00489,40.39537 6.65554,40.58499 z m -45.3343,-18.28594 c 2.50984,-16.85998 3.85335,-34.68364 -2.22533,-50.97464 -8.64565,10.69838 -2.4124,25.09263 -5.9844,37.24829 0.19981,5.44238 2.30888,12.12914 8.20973,13.72635 z"
           id="path4425-2-5"
           inkscape:connector-curvature="0"
           sodipodi:nodetypes="ccccccccscccccccccccccccccccccc" />
        <path
           style="fill:#90b1d8"
           d="m 962.06329,574.39213 c -9.38029,-12.63264 -28.78637,-11.26807 -40.37341,-2.57174 -17.43183,9.47644 -36.31924,22.42574 -57.18957,17.64372 -25.10416,-8.36027 -35.3421,-39.39949 -28.06711,-63.26701 3.53903,-15.27268 8.29576,-30.60638 17.19806,-43.68269 4.20523,-11.862 -7.28655,-11.76941 -11.89995,-20.88516 -4.91706,-13.23768 4.08278,-34.24319 16.33766,-38.56263 9.99276,-3.06628 22.05112,5.59077 30.55173,11.25137 7.09407,-12.10297 9.46255,-27.8173 24.30384,-26.62787 23.18404,-6.28364 57.4661,-8.23256 78.82406,5.68982 12.5253,8.85289 12.2963,25.52536 10.4307,39.13861 -2.53522,19.86358 -9.3513,40.42808 -2.82692,60.24469 11.09052,-8.99403 6.01652,-24.50657 5.27672,-36.61597 -0.898,-12.06966 5.5806,-27.417 10.7361,-38.3767 -2.349,-11.12517 22.8936,-19.43794 14.6867,-3.9751 -5.9985,10.86349 -13.6471,27.21719 -8.6023,39.1142 6.5012,23.10057 26.2413,41.20811 27.4259,66.0101 -2.0121,23.38808 -25.0477,39.45486 -47.1588,41.03321 -13.34464,-0.25943 -26.91813,-1.56603 -39.65341,-5.56085 z m 76.68021,-12.61 c 4.1476,-4.57458 -3.2157,1.8897 0,0 z m -96.0208,-40.70604 c 0.2684,-19.6149 12.60778,-38.31133 7.06475,-58.09798 -13.5897,-5.58025 -15.1853,14.4925 -15.20128,23.50426 -0.88901,11.94904 0.83783,24.73117 8.13653,34.59372 z m 74.5072,-12.01255 c 2.0139,-5.21892 1.3944,-23.61987 -4.9717,-19.1194 0.2772,6.60959 1.3988,13.42578 4.9717,19.1194 z m -122.31925,3.17582 c 6.61113,-17.7423 5.43161,-37.46528 0.39189,-55.44148 -6.67504,11.77998 -5.29436,23.47978 -6.72012,36.43234 0.54148,5.96165 2.57059,14.25532 6.32823,19.00914 z m -31.97769,6.29293 c 4.54679,-24.4327 -2.38715,-89.72316 20.06207,-87.06823 -11.75583,6.0969 -4.34151,20.33107 -2.70747,29.98773 2.44636,14.5691 -24.64609,43.24399 -17.3546,57.0805 z m 150.24894,-20.08906 c -7.4413,-13.82514 -2.3954,-29.73209 -0.1241,-44.19769 -5.8915,14.80512 -7.4024,31.85557 -1.7534,46.97309 1.4681,0.006 1.2924,-2.01252 1.8775,-2.7754 z"
           id="path4427-9-4"
           inkscape:connector-curvature="0"
           sodipodi:nodetypes="cccccccccccccccccccccccccccccccccccccccc" />
        <path
           style="fill:#6393d1"
           d="m 919.13203,573.91801 c -12.83817,6.33133 -26.94045,12.79315 -41.81902,11.6368 -25.20278,7.16703 -49.35677,-20.20382 -43.80155,-44.21429 0.99006,-20.88727 12.09159,-32.772 19.6642,-51.63909 1.47038,-6.32313 8.67462,-16.36915 -7.07067,-13.14453 -11.61887,2.37954 -14.01528,-16.99143 -11.84817,-25.65264 2.7495,-14.53036 10.78774,-26.31022 23.56548,-29.58458 10.1999,-3.12371 31.54889,1.83218 34.47207,13.01365 2.68578,17.18642 -6.78363,85.75532 5.21196,70.87763 -0.0322,-12.0782 -2.99409,-32.98019 -4.57521,-44.28055 -11.37545,-12.10605 -6.84584,-35.86485 2.40233,-49.4655 12.16253,-12.50039 31.06267,-10.74765 47.02747,-11.07455 14.98458,0.5367 34.06909,3.94696 47.2393,12.07822 18.35188,8.58537 16.63028,36.80695 9.66148,54.77702 -3.2455,13.34166 -6.1803,27.74654 -1.4989,41.12478 15.185,-2.69017 4.3311,-21.28432 6.5074,-31.36706 0.055,-17.32713 1.3415,-42.5712 21.6079,-54.38545 14.657,-8.69998 7.7185,-2.08583 0.9933,22.01294 -3.6323,12.19857 -6.8452,33.74904 0.5271,43.24185 10.4297,17.51881 22.9294,37.59714 17.4909,58.83946 -16.401,31.2878 -61.77094,40.49954 -89.00253,26.79278 -19.37289,-15.70511 -22.96915,-8.29354 -36.75484,0.41311 z m 102.97277,-5.60013 c -3.9742,-1.45022 2.1925,3.42788 0,0 z M 907.82617,537.82059 c 8.191,-24.90443 7.77194,-51.98673 2.00105,-77.36235 -13.40148,-1.01695 -3.03773,17.93998 -2.35667,25.49804 2.39737,11.68226 3.1934,25.47069 -5.12932,35.10668 13.44956,-0.0475 -10.17877,22.18188 5.48494,16.75763 z m 138.40293,-4.22202 c -6.2709,3.02209 3.2476,-0.0243 0,0 z m -153.68309,-1.75348 c -12.40738,-11.00397 -11.50913,-27.96847 -11.78534,-42.33436 5.93557,-77.84231 -8.17808,-33.75633 -4.52201,23.96234 1.04244,7.94816 6.43032,20.23541 16.30735,18.37202 z m -13.019,-6.5819 c 3.14653,-2.03273 -1.46906,3.36475 0,0 z m 61.6852,-4.22712 c 48.09641,-6.15989 1.82662,-89.28879 -10.15874,-43.6378 1.9026,12.72844 1.945,26.20614 7.47596,38.21466 0.8006,1.85204 1.69356,3.66447 2.68278,5.42314 z m 71.12519,-18.5 c -6.0162,-22.4087 -2.7057,-47.18021 9.0961,-67.16952 -16.1402,16.82929 -19.4318,43.19136 -11.4737,64.60063 l 1.1001,1.36678 z M 912.20827,470.53608 c -2.69868,2.26862 2.96517,-0.29772 0,0 z m -51.07042,-3.27554 c 12.93124,5.79125 37.34723,-31.71463 10.66241,-39.21567 -47.16099,2.98816 -25.58351,59.61074 -10.66241,39.21567 z"
           id="path4429-7-5"
           inkscape:connector-curvature="0"
           sodipodi:nodetypes="ccccscccccccccccccccccccccccccccccccccccccccccccccc" />
        <path
           style="fill:#467ac8"
           d="m 922.73734,578.8908 c -12.97333,17.70452 -37.75947,19.33145 -57.62702,15.51093 -17.66991,-4.53303 -29.83914,-22.38283 -29.53063,-40.32781 -2.14192,-23.80257 9.66149,-45.54513 18.54043,-66.69871 1.83172,-13.51499 -10.43359,-22.83976 -14.07651,-34.70734 -1.20976,-14.50478 10.97281,-28.40218 24.64253,-30.48908 16.65847,-0.69093 34.0652,11.45303 19.06743,42.79601 -0.0526,-12.59436 -3.31563,-37.53235 -18.12915,-35.78573 -14.9038,0.35536 -23.99659,17.63611 -18.77179,32.90363 16.76922,8.57831 25.41713,-5.58808 25.41713,-5.58808 -1.92492,-10.80679 -10.14005,-6.90619 -21.09509,-9.48068 -5.48726,-10.47086 13.238,-17.91777 20.13695,-10.30214 6.27166,7.88636 7.15315,18.91044 7.171,28.68076 -0.24984,14.58053 -13.67561,27.95593 -15.32585,42.24159 -0.71796,4.68806 1.55241,18.47497 -4.58088,9.48667 -11.27694,-6.99231 -4.68623,12.38963 -0.0537,17.95041 6.45291,6.88417 10.07348,15.58821 13.0389,23.54422 9.53647,6.68345 26.33238,3.29197 30.39992,-8.31447 3.98486,-9.53594 12.79773,-16.55599 13.27601,-27.42432 1.91899,-14.65642 0.35212,-29.49311 0.0757,-44.20382 -1.15771,-11.44264 -3.84629,-22.82113 -4.35831,-34.24378 1.31573,-4.81033 7.95688,-19.73057 -2.37808,-15.78717 -9.37099,9.17286 -7.19607,23.61654 -7.21541,35.56354 0.73545,11.57404 2.70518,23.07272 2.58264,34.69595 10.70177,5.33561 25.64957,28.62762 14.56058,28.13085 -12.84105,-5.74679 -5.78342,-25.19454 -4.79394,-33.74733 -0.86213,-16.58522 -19.03088,-30.13764 -18.45379,-46.78364 3.33953,-7.96042 14.47281,-9.56006 17.74708,-17.44407 9.79317,-14.03817 20.0484,-11.7984 35.5719,-10.17061 12.71247,0.84439 13.51114,7.7156 26.09601,9.69046 20.6184,6.31775 9.65,16.718 15.0909,35.32912 -12.95969,7.92061 -2.97284,-16.57478 5.17279,-20.98919 2.99129,-9.88965 -17.29167,-17.78051 -13.86874,-3.87296 3.13597,12.70813 4.01399,25.8348 1.7751,38.71076 -0.45642,13.29093 -4.65726,49.35529 -6.38816,62.56041 46.98281,25.55343 24.08191,-48.02515 26.32051,-64.60631 0.1666,-17.17191 10.5833,-46.11517 30.0698,-53.9128 -7.5219,17.63932 -12.0417,30.29971 -11.256,40.9108 -2.2199,12.71424 -0.1306,27.11583 9.6903,36.29661 12.1203,15.47461 21.6506,37.27495 12.3175,56.42387 -5.5386,12.38122 -19.0508,19.61835 -29.4215,27.36101 -16.22222,5.66536 -25.9427,8.05314 -41.79706,0.092 -13.67799,-5.05792 -35.02197,-15.15972 -49.63945,-3.99953 z m 67.83787,-30.63013 c -9.78631,1.446 -4.00019,-24.03891 -17.49984,-23.88149 -0.0426,-10.11486 5.67447,-19.66851 4.37281,-29.78519 -4.44266,4.59984 -8.04394,18.33196 -9.04336,27.2258 -0.79647,10.2163 0.69166,24.60861 12.38408,27.88688 3.26033,0.99106 7.0134,0.64105 9.78631,-1.446 z m -22.48586,-24.78566 c -1.71805,-2.6052 2.64468,-3.06656 0,0 z m -25.21557,-7.96874 c 7.40408,15.90514 32.37349,-52.79099 4.596,-49.24582 -14.43891,-5.00239 -15.01824,16.28872 -12.83363,25.5986 0.0255,7.80257 3.3536,25.33505 8.09932,25.63155 0.0322,-0.66197 0.0961,-1.32288 0.13831,-1.98433 z m 78.34382,-3.95424 c -7.9904,-26.23497 -9.9247,-56.81758 5.1618,-80.96167 -20.0756,19.8793 -25.8365,52.62171 -13.796,78.17306 1.8688,2.64974 5.5608,3.94475 8.6342,2.78861 z m -2.2095,-70.33888 c -3.7488,-4.247 5.446,-2.72312 0,0 z m -26.56433,60.12642 c -3.33686,1.31418 3.39548,0.97953 0,0 z M 873.10605,485.25625 c -2.69868,2.26862 2.96517,-0.29772 0,0 z m 28.04498,-38.98857 c -3.83875,2.58066 3.75867,1.18613 0,0 z m -40.51048,68.98325 c 2.80175,1.94091 -3.80752,1.10846 0,0 z m 43.80322,-31.41132 c 2.33373,-3.80827 -1.09254,4.74853 0,0 z m 12.27236,-2.33333 c -2.55567,-5.45449 2.13196,0.34094 0,0 z m -2.19341,-5.58334 c 2.64839,2.81451 -3.51476,0.68455 0,0 z m -8.96064,-20.72568 c -8.25633,-3.02318 6.55277,-23.5712 1.34816,-10.03356 -1.22821,3.16553 -1.9886,6.64445 -1.34816,10.03356 z m -29.03936,-4.27431 c 2.64838,2.8145 -3.51476,0.68452 0,0 z"
           id="path4431-5-0"
           inkscape:connector-curvature="0"
           sodipodi:nodetypes="cccccccccscccccccccccccccccccccccccccccccccccccccccccccccccccccccccccccccccccccccc" />
        <path
           style="fill:#4a74b5;fill-opacity:1"
           d="m 962.34193,407.95403 c 70.80517,0.31994 23.3287,74.39704 23.46546,117.58062 33.72241,9.65309 26.15201,-27.74518 27.69701,-37.03653 16.8223,-102.72247 -1.7151,-27.58104 29.5102,22.24482 28.4366,44.57811 -18.0545,83.46254 -58.10032,75.26481 -33.59643,-8.43785 -17.76328,-19.47757 -52.86841,-13.323 -16.2469,18.3271 -43.61402,21.4846 -66.41251,16.61013 -14.68411,-3.02346 -28.44983,-14.50313 -29.39651,-30.26203 -2.24982,-18.37925 4.57194,-36.4309 11.89836,-52.89093 13.35714,-12.79709 17.26919,-36.9401 5.36528,-33.76627 -16.41865,4.37755 -15.46406,-18.45952 -13.85826,-24.56157 4.15606,-11.33872 14.59314,-24.64024 27.43245,-22.59488 14.16302,6.22724 8.65224,3.05531 0.82093,4.03139 -14.59588,-0.20651 -24.5649,12.37438 -20.8472,26.73706 1.32764,11.75212 18.72194,6.84001 24.01205,-9.05976 -8.26288,1.27686 -26.16264,-3.28485 -12.77203,-6.91656 14.39114,-2.21488 20.70912,15.10403 20.20272,26.79367 -0.99892,11.82971 -0.28658,26.83967 -9.86561,33.67662 -1.05279,4.71189 -3.49091,16.34719 -8.73159,7.08128 -10.87135,-1.96981 -8.62504,14.07002 -2.99449,18.75089 4.62412,11.61208 -3.75271,29.88848 11.61603,34.82583 93.35156,29.88556 23.91448,-146.42312 35.86456,-151.25489 m 42.67305,60.68045 c -14.23971,-5.03491 -13.94548,16.15716 -11.33394,24.96205 1.08088,64.13627 18.52021,-4.16255 11.33394,-24.96205 z m -85.62974,55.41675 c 74.35763,77.42195 19.72093,-91.98075 34.03707,-109.49766 30.7506,-35.52582 15.95936,80.6344 14.53902,102.45988 -0.96099,5.84816 -27.41657,119.2507 -48.57609,7.03778 z"
           id="path4433-9-2"
           inkscape:connector-curvature="0"
           sodipodi:nodetypes="cccccccccsccccccccccccccccccc" />
        <path
           style="fill:#316dc9"
           d="m 931.57129,566.56884 c -10.40864,10.90318 -25.37865,15.41055 -40.09726,15.82413 -18.14166,0.87506 -39.91229,-3.24016 -49.7401,-20.2792 -1.4266,-17.36853 0.9759,-24.94505 12.83299,-61.10179 32.92147,-30.89528 30.53765,-35.72574 11.61196,45.76012 38.30905,41.35912 42.83917,-29.22287 41.09368,-50.39095 -5.80111,-22.70067 -25.81519,-72.01491 14.41079,-77.23531 14.14179,-1.37365 32.40131,-3.71732 47.74599,1.54657 22.42711,7.69346 27.276,12.82191 27.85474,30.30924 1.0513,31.76631 -33.23078,77.08383 -6.44186,91.40445 11.67408,6.24066 25.33058,-1.3935 34.33688,-10.19022 7.5625,-12.01312 0.1968,-25.93176 -3.7289,-37.82832 -6.7755,-22.97349 -7.845,-58.61529 7.3844,-68.63893 -12.9763,26.78796 -5.4182,74.21843 11.2698,83.56771 22.2178,55.9828 -16.1753,73.75831 -76.07324,64.35467 -17.87894,-12.99057 -23.42136,-15.80662 -32.45987,-7.10217 z m 12.57779,-43.67619 c 24.698,-46.79163 -6.28693,-73.68138 -7.94338,-36.95109 1.95549,12.45352 4.7429,24.76274 7.94338,36.95109 z m -97.17931,3.33062 c 1.34061,-17.13751 27.16082,-56.71222 26.63625,-71.0317 -4.7569,-11.98722 -20.13844,-7.15291 -20.35094,-16.08839 12.64792,-16.83732 30.73991,7.3322 30.83934,18.10184 5.61216,43.69924 -48.89544,120.32129 -37.12465,69.01825 z"
           id="path4435-0-7-6"
           inkscape:connector-curvature="0"
           sodipodi:nodetypes="ccccccccsscccccccccccccc" />
        <path
           style="fill:#2558b0"
           d="m 850.75172,544.66956 c 3.42052,21.39576 13.07669,37.2562 30.402,32.89307 31.51155,-1.61152 35.81473,-14.1604 38.07502,-47.40435 -3.87158,-20.80173 -0.74139,-36.65847 -6.8165,-57.00235 -2.66277,-12.8126 -5.31861,-29.0433 -0.39627,-41.66825 145.45973,-27.35985 22.72232,74.14692 62.72469,110.54792 9.50711,8.93788 7.42988,16.894 18.41895,21.47067 13.86729,2.6469 32.24749,-3.4497 35.26359,-18.80663 5.5273,-56.49366 14.2503,-32.23965 20.3905,-4.80328 0,0 1.4475,18.20031 -18.1386,28.90497 -20.0128,15.52083 -50.35022,18.76694 -72.15161,4.79055 -7.15537,-5.06256 -7.79566,-24.35722 -19.66021,-21.28678 -5.2549,11.31109 -10.5973,24.23886 -22.81056,29.54614 -63.47037,22.59895 -89.98035,-23.15428 -65.301,-37.18168 z m 88.68078,-8.95112 c -1.25889,-20.39832 11.54801,-42.38762 7.28282,-60.57148 -7.45015,-9.75546 -11.28577,3.20224 -9.23786,11.93452 1.6723,19.76571 1.36059,16.94421 4.17751,26.64973 1.19955,5.09874 -3.7208,16.96875 -2.22247,21.98723 z m -79.16852,-34.38915 c 29.22225,-49.66764 -13.157,-61.02118 -2.28011,-65.99951 16.08848,6.03257 24.48699,28.26561 19.08081,39.35856 -10.77736,72.23832 -37.69226,77.61584 -16.8007,26.64095 z"
           id="path4437-2-0"
           inkscape:connector-curvature="0"
           sodipodi:nodetypes="ccccccccccccccccccccccc" />
        <path
           style="fill:#1a4fab"
           d="m 969.79302,579.555 c -31.32967,-6.19665 -24.87084,-67.53498 -20.89965,-59.82549 4.96688,71.98314 54.62763,59.25378 69.65483,48.78182 37.8537,-21.10844 13.2804,-62.93362 21.2027,-54.865 17.7908,26.42929 6.9637,50.53053 -23.6922,63.08996 -13.2408,4.46608 -33.2044,8.37551 -46.26568,2.81871 z m -35.36665,-40.00671 c 2.8482,-13.22489 -14.41549,-22.68444 -8.77253,-36.00333 0.0327,-21.06116 -4.44652,-41.8008 -1.22849,-62.53299 71.88724,-24.25218 43.11111,42.33378 30.94278,69.25795 -7.95034,19.28865 -11.08295,19.40675 -7.88365,7.26222 2.68384,-13.06331 8.39347,-27.46832 4.17633,-40.99715 -3.42823,-27.22585 -20.84516,-7.12442 -20.34436,5.22005 -2.29974,16.55441 5.69861,32.49126 4.40523,49.101 -0.14626,2.92997 -0.54793,5.85304 -1.29531,8.69225 z m -75.07123,-86.86135 c -15.4398,6.53608 -10.76141,-28.47818 3.88802,-13.99847 2.28241,4.53045 2.85889,11.14232 -3.88802,13.99847 z"
           id="path4439-2-8"
           inkscape:connector-curvature="0"
           sodipodi:nodetypes="cccccccccccccccscs" />
      </g>
      <g
         id="g4239">
        <text
           inkscape:export-ydpi="180"
           inkscape:export-xdpi="180"
           id="text4441-3"
           y="834.677"
           x="361.689"
           style="font-style:normal;font-variant:normal;font-weight:normal;font-stretch:normal;line-height:0%;font-family:Garuda;-inkscape-font-specification:Garuda;text-align:start;letter-spacing:0px;word-spacing:0px;writing-mode:lr-tb;text-anchor:start;fill:#1a4fab;fill-opacity:1;stroke:none;stroke-width:0.9375px;stroke-linecap:butt;stroke-linejoin:miter;stroke-opacity:1"
           xml:space="preserve"><tspan
             id="tspan4443-6"
             style="font-style:normal;font-variant:normal;font-weight:bold;font-stretch:normal;font-size:45px;line-height:1.25;font-family:Lato;-inkscape-font-specification:'Lato Bold';text-align:start;writing-mode:lr-tb;text-anchor:start;fill:#4a74b5;fill-opacity:1;stroke-width:0.9375px"
             y="834.677"
             x="361.689"
             sodipodi:role="line">NIGHRES</tspan></text>
        <text
           inkscape:export-ydpi="180"
           inkscape:export-xdpi="180"
           id="text4445-7"
           y="868.06476"
           x="555.46844"
           style="font-style:normal;font-variant:normal;font-weight:normal;font-stretch:normal;line-height:0%;font-family:FreeMono;-inkscape-font-specification:'FreeMono, Normal';text-align:start;letter-spacing:0px;word-spacing:0px;writing-mode:lr-tb;text-anchor:start;fill:#1a4fab;fill-opacity:1;stroke:none;stroke-width:0.9375px;stroke-linecap:butt;stroke-linejoin:miter;stroke-opacity:1"
           xml:space="preserve"><tspan
             style="font-style:normal;font-variant:normal;font-weight:normal;font-stretch:normal;font-size:25px;line-height:100%;font-family:Lato;-inkscape-font-specification:Lato;text-align:end;writing-mode:lr-tb;text-anchor:end;fill:#4a74b5;fill-opacity:1;stroke-width:0.9375px"
             y="868.06476"
             x="560.30243"
             sodipodi:role="line"
             id="tspan4188-3">Neuroimaging at </tspan><tspan
             style="font-style:normal;font-variant:normal;font-weight:normal;font-stretch:normal;font-size:25px;line-height:100%;font-family:Lato;-inkscape-font-specification:Lato;text-align:end;writing-mode:lr-tb;text-anchor:end;fill:#4a74b5;fill-opacity:1;stroke-width:0.9375px"
             y="893.06476"
             x="560.30243"
             sodipodi:role="line"
             id="tspan4233">high resolution </tspan><tspan
             style="font-style:normal;font-variant:normal;font-weight:normal;font-stretch:normal;font-size:25px;line-height:100%;font-family:Lato;-inkscape-font-specification:Lato;text-align:end;writing-mode:lr-tb;text-anchor:end;fill:#4a74b5;fill-opacity:1;stroke-width:0.9375px"
             y="918.06476"
             x="560.30243"
             sodipodi:role="line"
             id="tspan4235"> </tspan></text>
      </g>
    </g>
  </g>
</svg>
